<mxfile host="app.diagrams.net" modified="2023-09-29T19:40:35.652Z" agent="Mozilla/5.0 (Windows NT 10.0; Win64; x64) AppleWebKit/537.36 (KHTML, like Gecko) Chrome/117.0.0.0 Safari/537.36" version="22.0.0" etag="06fPjvsf4sBX2OIiv8JG" type="github">
  <diagram name="Страница — 1" id="BsvFJUhxQ8sqZDMopN1O">
    <mxGraphModel>
      <root>
        <mxCell id="0" />
        <mxCell id="1" parent="0" />
      </root>
    </mxGraphModel>
  </diagram>
</mxfile>
